<svg xmlns="http://www.w3.org/2000/svg" viewBox="0 0 500 172.5"><defs><style>.cls-2{fill:#1d9bd7}</style></defs><g id="Layer_1"><path d="M465.6 73.5H456c0-16.3-13.3-29.6-29.6-29.6v-9.6c21.6 0 39.1 17.6 39.1 39.1Z" class="cls-2"/><path d="M482.8 73.5h-9.6c0-25.8-21-46.8-46.8-46.8v-9.6c31.1 0 56.3 25.3 56.3 56.3Z" class="cls-2"/><path d="M500 73.5h-9.6c0-35.3-28.7-64-64-64V0c40.5 0 73.5 33 73.5 73.5Z" class="cls-2"/><path d="M42.8 92.2H32.6c-.6-1.3-1.1-2.7-1.4-4.4-.3-1.7-.4-4.3-.4-7.7s-.8-6.1-2.3-7.6c-1.6-1.5-3.9-2.3-7.1-2.3H8.5v22H0V39.1h25.4c5.2 0 9.3 1.4 12.4 4.1s4.6 6.2 4.6 10.3-.9 6.2-2.8 8.6c-1.9 2.4-4.5 4.2-7.8 5.4 2.6 1 4.6 2.6 6 4.6s2.1 4.7 2.3 8c.1 2.8.3 5.1.6 6.9.3 1.5 1 2.8 2.1 3.9v1.2ZM8.4 62.3h16.3c2.9 0 5.1-.7 6.7-2 1.6-1.3 2.4-3.2 2.4-5.6s-.8-4.3-2.4-5.6c-1.6-1.3-3.8-2-6.7-2H8.4v15.2ZM49 82c0-3.8 1.3-6.6 3.8-8.6s5.8-2.9 10-2.9 4.3.3 6.4.8l3.8.9v-2.6c0-2.3-.8-4.2-2.3-5.5-1.6-1.3-3.6-2-6-2s-4.3.6-5.8 1.9c-1.5 1.3-2.5 3-2.9 5.2l-7.2-1.9c.8-3.6 2.6-6.4 5.3-8.5 2.7-2.1 6.3-3.1 10.6-3.1s9 1.2 11.8 3.7c2.8 2.5 4.1 6 4.1 10.6v22.3H73v-6.1c-.8 2.1-2.3 3.8-4.3 5S64.1 93 61 93s-5.9-1-8.3-3c-2.4-2-3.6-4.7-3.6-7.9Zm23.8-3.5v-.4l-2.9-.7c-2.6-.7-4.6-1-6-1-2.1 0-3.7.4-4.9 1.2s-1.8 2-1.8 3.6.6 2.7 1.7 3.6c1.1.9 2.8 1.4 5 1.4s4.8-.7 6.4-2c1.6-1.4 2.4-3.2 2.4-5.5Zm25.3 13.7h-8V39.1h8v24.5c.9-2.5 2.5-4.5 4.7-6 2.2-1.4 4.8-2.1 7.8-2.1s7 1.2 9.3 3.6c2.3 2.4 3.5 5.5 3.5 9.4v23.6h-8V70.7c0-2.8-.7-5-2.1-6.5s-3.5-2.2-6.1-2.2-4.8 1-6.5 3c-1.7 2-2.6 4.7-2.6 8v19.1ZM133 56.3h8v5.1c1.7-3.9 4.9-5.8 9.5-5.8s4.3.6 5.9 1.9c1.7 1.3 2.8 3.1 3.6 5.6.9-2.5 2.2-4.3 4.1-5.6 1.8-1.3 3.9-1.9 6.2-1.9 3.4 0 6.1 1.1 8 3.2 2 2.2 2.9 5.2 2.9 9.2v24.2h-8V69.7c0-2.2-.6-3.9-1.7-5.2-1.1-1.3-2.6-1.9-4.4-1.9s-3.3.6-4.4 1.9c-1.1 1.3-1.7 3-1.7 5.2v22.5h-8V69.7c0-2.2-.6-3.9-1.7-5.2-1.1-1.3-2.6-1.9-4.4-1.9s-3.3.7-4.4 2c-1.1 1.4-1.6 3.3-1.6 5.8v21.8h-8V56.3Zm94.9-10c-2.8 0-5.1.6-6.9 1.8-1.7 1.2-2.6 2.8-2.6 4.6s.6 2.9 1.8 4.1c1.2 1.2 2.7 2.1 4.6 2.8 1.9.7 4.3 1.3 7.2 1.9 6.2 1.2 10.8 3 13.8 5.5s4.5 5.8 4.5 10-1.9 8.4-5.8 11.4c-3.8 3-8.8 4.5-14.9 4.5s-9.8-1.2-14.2-3.6c-4.4-2.5-7.5-6.7-9.4-12.7l8-4.9c.9 4.3 2.8 7.5 5.5 9.8 2.7 2.3 6.2 3.4 10.2 3.4s6.5-.7 8.7-2.1c2.2-1.4 3.3-3.2 3.3-5.5s-1-3.9-2.9-5.3c-1.9-1.3-5.1-2.4-9.6-3.1-6.3-1.1-11-2.9-14.2-5.5-3.2-2.6-4.8-6.2-4.8-10.7s1.7-7.4 5.2-10.2c3.5-2.8 7.9-4.2 13.3-4.2s8.5 1.1 11.9 3.4c3.5 2.3 5.9 5.4 7.4 9.5l-8 4.6c-.7-3.1-2.1-5.4-4.2-7-2-1.6-4.7-2.4-8-2.4Zm56 32.2 6.8 2.7c-1.3 3.8-3.3 6.7-6.1 8.7-2.8 2-6.3 3-10.5 3s-10.1-1.7-13.5-5.2c-3.4-3.4-5.1-8-5.1-13.8s1.6-9.6 4.9-13.2c3.2-3.5 7.5-5.3 12.6-5.3s8.7 1.4 11.7 4.3 4.5 6.7 4.5 11.5-.1 2.6-.4 4.1h-25.4c0 3.5 1.1 6.1 3.2 8 2.2 1.8 4.7 2.7 7.6 2.7s4.7-.6 6.3-1.9 2.8-3.2 3.3-5.6Zm-20.5-8.3h17.8v-.7c0-2.2-.7-3.9-2.3-5.3-1.6-1.3-3.6-2-6-2s-4.6.7-6.4 2.1c-1.8 1.4-2.8 3.3-3.1 5.7Zm42.3 22h-8V56.3h8v5.3c2.4-4 6.2-6 11.3-6s6.8 1.2 9.1 3.6c2.3 2.4 3.4 5.6 3.4 9.6v23.5h-8V71.5c0-2.9-.7-5.1-2-6.7-1.3-1.6-3.1-2.4-5.4-2.4s-4.5.9-6.1 2.7c-1.6 1.8-2.4 4.2-2.4 7.2v20Zm30.9-9.1 6.4-3.4c.9 2.2 2.2 3.8 3.8 4.9 1.6 1 3.7 1.6 6.2 1.6s3.7-.4 4.9-1.1c1.2-.8 1.8-1.8 1.8-3s-.6-2.9-1.8-3.7c-1.2-.8-3.6-1.5-7-2.1-8.2-1.3-12.3-4.8-12.3-10.5s1.3-5.4 3.9-7.3c2.6-1.9 5.8-2.9 9.5-2.9s6.1.7 8.2 2c2.1 1.3 3.8 3.3 5 5.8l-6 3.3c-1.1-3.2-3.4-4.8-7.1-4.8s-3.3.4-4.5 1.1c-1.2.8-1.8 1.7-1.8 2.8s.6 2.3 1.9 3c1.3.6 3.7 1.2 7.2 1.7 4.4.6 7.5 1.9 9.5 3.7 2 1.8 3 4.3 3 7.4s-1.4 6-4.2 8.2c-2.8 2.1-6.3 3.2-10.4 3.2s-7.4-.9-10.2-2.6c-2.7-1.7-4.7-4.1-6-7.3Zm41.3 4.5c-3.5-3.6-5.2-8-5.2-13.4s1.7-9.8 5.2-13.4c3.5-3.6 7.9-5.3 13.3-5.3s9.8 1.8 13.3 5.3c3.5 3.6 5.2 8 5.2 13.4s-1.7 9.8-5.2 13.4c-3.5 3.6-7.9 5.3-13.3 5.3s-9.8-1.8-13.3-5.3Zm20.8-5.1c2-2.2 3-4.9 3-8.3s-1-6.1-3-8.3c-2-2.2-4.5-3.3-7.5-3.3s-5.5 1.1-7.5 3.3c-2 2.2-3 4.9-3 8.3s1 6.1 3 8.3c2 2.2 4.5 3.2 7.5 3.2s5.6-1.1 7.5-3.2Zm18.5-26.2h8v5.3c.7-1.9 1.8-3.4 3.3-4.4 1.5-1 3.3-1.6 5.4-1.6s5.4 1 7.4 3c2 1.9 3 4.3 3 7.2s-.2 3.2-.5 4.6h-7.9c.2-.9.3-1.9.3-3s-.5-2.6-1.5-3.5-2.3-1.4-3.8-1.4-3.1.5-4.1 1.6c-1 1.1-1.6 2.5-1.6 4.4v23.9h-8V56.5ZM0 157.4v-53.1h20.1c5.6 0 10.4 1.2 14.4 3.5s7.1 5.5 9.1 9.5 3 8.7 3 13.9-.6 7.2-1.8 10.4c-1.2 3.2-2.9 6-5.1 8.3-2.2 2.3-5 4.2-8.4 5.5s-7.1 2-11.2 2H0ZM8.4 112v37.9h11.7c2.9 0 5.5-.5 7.8-1.5s4.2-2.3 5.7-4c1.5-1.7 2.7-3.7 3.5-5.9.8-2.2 1.2-4.6 1.2-7.2 0-5.7-1.6-10.4-4.8-14-3.2-3.6-7.7-5.3-13.5-5.3H8.3Zm72.5 31.8 6.8 2.7c-1.3 3.8-3.3 6.7-6.1 8.7-2.8 2-6.3 3-10.5 3S61 156.5 57.6 153c-3.4-3.4-5.1-8-5.1-13.8s1.6-9.6 4.9-13.2c3.2-3.5 7.5-5.3 12.6-5.3s8.7 1.4 11.7 4.3 4.5 6.7 4.5 11.5-.1 2.6-.4 4.1H60.4c0 3.5 1.1 6.1 3.2 8 2.2 1.8 4.7 2.7 7.6 2.7s4.7-.6 6.3-1.9c1.7-1.3 2.8-3.2 3.3-5.6Zm-20.4-8.3h17.8v-.7c0-2.2-.7-3.9-2.3-5.3-1.6-1.3-3.6-2-6-2s-4.6.7-6.4 2.1c-1.8 1.4-2.8 3.3-3.1 5.7Zm37.5-14 10.5 28 10.5-28h8.4l-14.3 35.9H104l-14.3-35.9H98Zm60.7 22.3 6.8 2.7c-1.3 3.8-3.3 6.7-6.1 8.7-2.8 2-6.3 3-10.5 3s-10.1-1.7-13.5-5.2c-3.4-3.4-5.1-8-5.1-13.8s1.6-9.6 4.9-13.2c3.2-3.5 7.5-5.3 12.6-5.3s8.7 1.4 11.7 4.3 4.5 6.7 4.5 11.5-.1 2.6-.4 4.1h-25.4c0 3.5 1.1 6.1 3.2 8 2.2 1.8 4.7 2.7 7.6 2.7s4.7-.6 6.3-1.9c1.7-1.3 2.8-3.2 3.3-5.6Zm-20.5-8.3H156v-.7c0-2.2-.7-3.9-2.3-5.3-1.6-1.3-3.6-2-6-2s-4.6.7-6.4 2.1c-1.8 1.4-2.8 3.3-3.1 5.7Zm34.4 21.9v-53.1h8v53.1h-8Zm20.8-4.5c-3.5-3.6-5.2-8-5.2-13.4s1.7-9.8 5.2-13.4c3.5-3.6 7.9-5.3 13.3-5.3s9.8 1.8 13.3 5.3c3.5 3.6 5.2 8 5.2 13.4s-1.7 9.8-5.2 13.4c-3.5 3.6-7.9 5.3-13.3 5.3s-9.8-1.8-13.3-5.3Zm20.8-5.1c2-2.2 3-4.9 3-8.3s-1-6.1-3-8.3c-2-2.2-4.5-3.3-7.5-3.3s-5.5 1.1-7.5 3.3c-2 2.2-3 4.9-3 8.3s1 6.1 3 8.3c2 2.2 4.5 3.2 7.5 3.2s5.5-1.1 7.5-3.2Zm18.5-26.3h7.7v6.4c1.2-2.1 3-3.8 5.3-5.1s4.7-2 7.2-2c4.8 0 8.8 1.8 11.8 5.3s4.5 8.1 4.5 13.6-1.6 10-4.7 13.4-7.3 5.1-12.4 5.1-4.7-.5-6.7-1.5-3.6-2.4-4.6-4.3v20h-8v-51Zm18 29.7c2.9 0 5.4-1.1 7.4-3.2s3-4.9 3-8.3-1-6.2-3-8.4-4.5-3.3-7.4-3.3-5.2 1.1-7.2 3.3c-2.1 2.2-3.1 5-3.1 8.4s1 6.1 3.1 8.3c2 2.1 4.5 3.2 7.3 3.2Zm25.9-29.7h8v5.1c1.7-3.9 4.9-5.8 9.5-5.8s4.3.6 5.9 1.9c1.7 1.3 2.8 3.1 3.6 5.6.9-2.5 2.2-4.3 4.1-5.6 1.8-1.3 3.9-1.9 6.2-1.9 3.4 0 6.1 1.1 8 3.2 2 2.2 2.9 5.2 2.9 9.2v24.2h-8v-22.5c0-2.2-.6-3.9-1.7-5.2-1.1-1.3-2.6-1.9-4.4-1.9s-3.3.6-4.4 1.9c-1.1 1.3-1.7 3-1.7 5.2v22.5h-8v-22.5c0-2.2-.6-3.9-1.7-5.2-1.1-1.3-2.6-1.9-4.4-1.9s-3.3.7-4.4 2c-1.1 1.4-1.6 3.3-1.6 5.8v21.8h-8v-35.9Zm84.1 22.3 6.8 2.7c-1.3 3.8-3.3 6.7-6.1 8.7-2.8 2-6.3 3-10.5 3s-10.1-1.7-13.5-5.2c-3.4-3.4-5.1-8-5.1-13.8s1.6-9.6 4.9-13.2c3.2-3.5 7.5-5.3 12.6-5.3s8.7 1.4 11.7 4.3 4.5 6.7 4.5 11.5-.1 2.6-.4 4.1h-25.4c0 3.5 1.1 6.1 3.2 8 2.2 1.8 4.7 2.7 7.6 2.7s4.7-.6 6.3-1.9 2.8-3.2 3.3-5.6Zm-20.5-8.3H358v-.7c0-2.2-.7-3.9-2.3-5.3-1.6-1.3-3.6-2-6-2s-4.6.7-6.4 2.1c-1.8 1.4-2.8 3.3-3.1 5.7Zm42.4 21.9h-8v-35.9h8v5.3c2.4-4 6.2-6 11.3-6s6.8 1.2 9.1 3.6c2.3 2.4 3.4 5.6 3.4 9.6v23.5h-8v-20.8c0-2.9-.7-5.1-2-6.7-1.3-1.6-3.1-2.4-5.4-2.4s-4.5.9-6.1 2.7c-1.6 1.8-2.4 4.2-2.4 7.2v20Zm36.7-11.3v-17.7h-7.2v-6.8h7.2v-11.4h8v11.4h13.6v6.8h-13.6v18.1c0 1.6.4 2.8 1.3 3.6s1.9 1.3 3.2 1.3 2.7-.5 3.5-1.5 1.3-2.5 1.4-4.6l7.5 1.5c-.3 3.6-1.6 6.4-3.7 8.4s-4.9 3-8.4 3-7.4-1.1-9.6-3.2c-2.2-2.1-3.3-5.1-3.3-8.9Z" style="fill:#231f20"/></g></svg>